<svg xmlns="http://www.w3.org/2000/svg" viewBox="0 0 530.36 368.12"><defs><style>.cls-1{fill:none;stroke:#ffffff;stroke-miterlimit:10;stroke-width:12px;}.cls-2{fill:#ffffff;}</style></defs><g id="Layer_2" data-name="Layer 2"><g id="Layer_1-2" data-name="Layer 1"><path class="cls-1" d="M497.53,277.9c24.34-17.9,29.84-41.6,25.45-68.77-6.64-41.11-52.7-67.33-90-64.28a75.79,75.79,0,0,0-31.43,10"/><line class="cls-1" x1="87.27" y1="300.56" x2="441.52" y2="300.53"/><path class="cls-1" d="M357.27,174.85c-9.4-20-6.4-47.11,18.09-61.41,26.91-15.71,61.82,1.09,70.48,31.47"/><path class="cls-1" d="M141.55,172c-24.08-69.38,21.24-139.81,92.87-160.44,74.21-21.38,154.47,21,167.85,93.24"/><path class="cls-1" d="M187.41,149.9c-12.93-21.85-11.52-46,1.43-65.15C206,59.43,239.73,51.59,271.7,69.9"/><path class="cls-1" d="M71.55,234.85c-26.73-15.66-26.83-60.14-17.79-80.17,12.22-27.06,44.29-50.18,80.47-44"/><path class="cls-1" d="M93,300.52C40.69,301.84,6.1,284.6,6,255.39,5.85,210.21,46.86,215,52.56,210.21"/><line class="cls-1" x1="436.27" y1="298.56" x2="482.55" y2="363.13"/><line class="cls-1" x1="499.65" y1="274.61" x2="482.55" y2="363.13"/><ellipse class="cls-2" cx="482.43" cy="363.87" rx="5.95" ry="4.25"/><ellipse class="cls-2" cx="357.27" cy="174.85" rx="5.95" ry="4.25"/><ellipse class="cls-2" cx="271.76" cy="69.84" rx="5.95" ry="4.25" transform="translate(113.18 301.33) rotate(-70)"/><ellipse class="cls-2" cx="141.55" cy="171.99" rx="5.95" ry="4.25"/><ellipse class="cls-2" cx="187.41" cy="149.9" rx="5.95" ry="4.25" transform="translate(-49.84 113.79) rotate(-30)"/><ellipse class="cls-2" cx="71.55" cy="234.85" rx="5.95" ry="4.25" transform="translate(-145.1 119.38) rotate(-45)"/><ellipse class="cls-2" cx="401.55" cy="154.85" rx="4.25" ry="5.95" transform="translate(8.12 329.29) rotate(-45)"/><path class="cls-1" d="M148.81,189.37c-22.2-.1-40.67,13.78-44.38,31-4.58,21.19,13.75,45.27,42,47.58"/><path class="cls-1" d="M182,179.1c-16.41,25.44-27.47,73.76-8.35,84.23,11.47,6.29,24.64,5.07,29.46,3.93"/><ellipse class="cls-1" cx="238.05" cy="233.88" rx="23.62" ry="35.43"/><path class="cls-1" d="M301.32,184.1c-17.69,13.87-23.92,76.3,11.12,84.24,24,5.42,29.74-26.88,19.64-74.62"/><path class="cls-1" d="M352.34,192.61c22.87-.82,35.08,13.89,38.08,30.8,3.7,20.86-9,46.13-38.08,46.47"/><path class="cls-1" d="M427.44,185.05c-17.69,13.87-23.92,76.3,11.13,84.23,24,5.43,29.74-26.87,19.64-74.61"/></g></g></svg>